<svg xmlns="http://www.w3.org/2000/svg" xmlns:xlink="http://www.w3.org/1999/xlink" xml:space="preserve" version="1.1" style="shape-rendering:geometricPrecision;text-rendering:geometricPrecision;image-rendering:optimizeQuality;" viewBox="0 0 5.069 4.704" x="0px" y="0px" fill-rule="evenodd" clip-rule="evenodd"><defs><style type="text/css">

    .fil0 {fill:black;fill-rule:nonzero}

  </style></defs><g><path class="fil0" d="M0.439 2.004l4.191 0 0.091 0c0.004,0 0.008,-0.002 0.011,-0.005 0.003,-0.003 0.005,-0.008 0.005,-0.012l0 -0.364c0,-0.005 -0.002,-0.009 -0.005,-0.012 -0.003,-0.003 -0.007,-0.005 -0.011,-0.005l-4.373 0c-0.005,0 -0.009,0.002 -0.012,0.005 -0.003,0.003 -0.005,0.007 -0.005,0.012l0 0.364c0,0.005 0.002,0.009 0.005,0.012l0 0c0.003,0.003 0.007,0.005 0.012,0.005l0.091 0zm2.261 1.78c0,0.091 -0.074,0.165 -0.166,0.165 -0.091,0 -0.165,-0.074 -0.165,-0.165l0 -0.876c0,-0.091 0.074,-0.165 0.165,-0.165 0.092,0 0.166,0.074 0.166,0.165l0 0.876zm0.844 0.026c-0.014,0.09 -0.099,0.152 -0.189,0.137 -0.09,-0.015 -0.151,-0.1 -0.137,-0.19l0.146 -0.875c0.014,-0.09 0.099,-0.151 0.189,-0.137 0.09,0.015 0.151,0.1 0.137,0.19l-0.146 0.875zm-1.694 -0.053c0.015,0.09 -0.046,0.175 -0.136,0.19 -0.09,0.015 -0.175,-0.047 -0.19,-0.137l-0.145 -0.875c-0.015,-0.09 0.046,-0.175 0.137,-0.19 0.09,-0.014 0.174,0.047 0.189,0.137l0.145 0.875zm1.739 -2.482l-0.518 -1.036c-0.04,-0.082 -0.007,-0.181 0.074,-0.222 0.082,-0.04 0.181,-0.007 0.221,0.074l0.592 1.184 0.763 0c0.096,0 0.183,0.039 0.246,0.102 0.063,0.063 0.102,0.15 0.102,0.246l0 0.364c0,0.096 -0.039,0.183 -0.102,0.246 -0.052,0.052 -0.121,0.087 -0.197,0.098l-0.371 2.233c-0.013,0.082 -0.083,0.139 -0.163,0.139l0 0.001 -3.404 0c-0.086,0 -0.157,-0.067 -0.165,-0.151l-0.369 -2.222c-0.076,-0.011 -0.144,-0.046 -0.196,-0.098l0 -0.001c-0.063,-0.063 -0.102,-0.15 -0.102,-0.245l0 -0.364c0,-0.096 0.039,-0.183 0.102,-0.246 0.063,-0.063 0.15,-0.102 0.246,-0.102l0.762 0 0.592 -1.184c0.041,-0.081 0.14,-0.114 0.222,-0.074 0.081,0.041 0.114,0.14 0.073,0.222l-0.518 1.036 2.11 0zm-1.055 1.06l-1.9 0 0.338 2.037 3.124 0 0.339 -2.037 -1.901 0z"></path></g></svg>